<?xml version="1.0" standalone="no"?><!DOCTYPE svg PUBLIC "-//W3C//DTD SVG 1.1//EN" "http://www.w3.org/Graphics/SVG/1.1/DTD/svg11.dtd"><svg t="1788071802019" class="icon" viewBox="0 0 1024 1024" version="1.1" xmlns="http://www.w3.org/2000/svg" p-id="26752" xmlns:xlink="http://www.w3.org/1999/xlink" width="200" height="200"><path d="M844.384865 528.420901a322.882883 322.882883 0 0 0-494.324469-294.284685 32.380541 32.380541 0 0 0-8.265801 47.602162 32.251387 32.251387 0 0 0 42.436036 7.251027 258.306306 258.306306 0 0 1 395.393153 239.431496H714.032432l97.787388 156.090811 97.787387-156.090811zM710.692901 731.929369a32.251387 32.251387 0 0 0-42.436036-7.251027A258.306306 258.306306 0 0 1 272.882162 485.246847h65.591352l-97.787388-156.090811-97.787387 156.090811h65.203892a322.882883 322.882883 0 0 0 494.342919 294.284685 32.380541 32.380541 0 0 0 8.247351-47.602163z" p-id="26753"></path></svg>